<svg height="271" preserveAspectRatio="xMidYMid" viewBox="0 0 256 271" width="256" xmlns="http://www.w3.org/2000/svg"><path d="m116.553 0-116.553 67.953v30.143l49.665 29.786 41.701-22.719v-26.423l88.299-50.706 62.046 35.736-.074 71.452-85.07 49.009-28.485-10.537-37.917 24.188.963 57.903 26.105 15.073 117.51-66.961v-40.247l-13.212 7.111v25.586l-104.264 59.114-12.915-7.456-.708-42.525 24.47-16.352 29.493 10.53 98.393-56.746-.935-87.256-75.387-43.023-101.662 58.376v26.41l-28.192 14.991-36.474-21.874v-14.914l102.893-59.986 21.598 13.763 13.049-7.513zm69.5166 71.0918-21.882 13.276.556 25.588 22.438 12.312 21.882-13.276-.556-25.587zm.251 11.559 12.302 6.751.305 14.029-11.997 7.278-12.302-6.75-.305-14.029zm-112.6196 58.3727-2.963-5.614c-.652-1.234-2.18-1.706-3.414-1.055l-19.393 10.231c-1.234.651-1.707 2.18-1.055 3.415l2.964 5.617c.651 1.234 2.18 1.707 3.414 1.055l19.391-10.234c1.235-.652 1.707-2.181 1.056-3.415m11.2158 17.0468-2.962-5.616c-.671-1.273-2.268-1.729-3.511-1.003l-32.704 19.121c-1.168.684-1.591 2.165-.96 3.361l2.962 5.616c.672 1.273 2.269 1.729 3.511 1.003l32.705-19.121c1.167-.683 1.59-2.164.959-3.361m3.0537 11.5352-38.448 22.101c-1.179.677-1.611 2.167-.975 3.37l2.963 5.615c.668 1.266 2.253 1.725 3.494 1.012l38.448-22.101c1.18-.678 1.611-2.168.976-3.371l-2.964-5.615c-.668-1.265-2.253-1.724-3.494-1.011"/></svg>